C:\GBW_MyPrograms\KinderuniversiteitApp\Resultaten\Ellis\Mars\Mars_v1.mot
version=1
nRows=19
nColumns=29
inDegrees=yes
endheader
                time	         pelvis_tilt	           pelvis_tx	           pelvis_ty	       hip_flexion_l	       hip_flexion_r	        knee_angle_l	        knee_angle_r	       ankle_angle_l	       ankle_angle_r	    lumbar_extension	hamstrings_r/activation	bifemsh_r/activation	glut_max_r/activation	iliopsoas_r/activation	rect_fem_r/activation	  vasti_r/activation	gastroc_r/activation	 soleus_r/activation	tib_ant_r/activation	hamstrings_l/activation	bifemsh_l/activation	glut_max_l/activation	iliopsoas_l/activation	rect_fem_l/activation	  vasti_l/activation	gastroc_l/activation	 soleus_l/activation	tib_ant_l/activation	
          0.00000000	         -4.79330109	          0.00000000	          1.00437707	         37.82994819	          8.71693540	        -29.68905318	        -46.17678541	        -22.79917591	          2.66165605	        -11.53294242	          0.05214637	          0.58153058	          0.05047936	          0.83929032	          0.99167210	          0.44496589	          0.25087231	          0.21396609	          0.94555928	          0.24801438	          0.71879296	          0.47019515	          0.85106241	          0.82078515	          0.50630151	          0.97280739	          0.78965155	          0.13030820	
          0.01117904	         -4.85173764	          0.00866141	          1.01411446	         37.17185175	         11.96996566	        -28.85946745	        -47.05963895	        -25.47035393	          2.74927104	        -12.73790841	          0.05544818	          0.49048503	          0.05129578	          0.70772126	          0.99154285	          0.68188974	          0.21163754	          0.31151967	          0.96871285	          0.28903267	          0.83332721	          0.39778827	          0.91192934	          0.69941327	          0.42728622	          0.83387973	          0.66686283	          0.20512146	
          0.02235808	         -5.02718702	          0.01703520	          1.02293586	         36.71060499	         14.71590424	        -28.32516282	        -46.84495494	        -27.36387837	          2.66400560	        -13.91681559	          0.05059653	          0.41363976	          0.45632412	          0.59675320	          0.94839577	          0.81768343	          0.17850053	          0.26277470	          0.98202481	          0.26600996	          0.89604687	          0.33685042	          0.94703780	          0.61005603	          0.36075578	          0.70667258	          0.56295888	          0.19183476	
          0.03353712	         -5.31756035	          0.02644977	          1.03071015	         36.30314085	         16.30908088	        -28.08552009	        -44.90796775	        -28.15067281	          2.88026322	        -14.84258655	          0.05022131	          0.34887178	          0.68841815	          0.50323084	          0.81671292	          0.89546474	          0.17971025	          0.22154850	          0.98958894	          0.48411892	          0.88097595	          0.28892605	          0.83898626	          0.51985954	          0.30552540	          0.59804071	          0.47537002	          0.26864421	
          0.04471616	         -5.68395447	          0.03757504	          1.03736907	         35.88224821	         16.59722951	        -28.32699721	        -41.85708068	        -27.66888457	          2.47661031	        -15.42151340	          0.45525637	          0.29481557	          0.82109148	          0.42581214	          0.82800117	          0.77573612	          0.27901817	          0.55373708	          0.83429333	          0.41272550	          0.76973325	          0.32522062	          0.78607837	          0.70512292	          0.34996919	          0.76584284	          0.69256233	          0.22860901	
          0.05589520	         -5.98371693	          0.05046566	          1.04328174	         35.07506918	         15.76839825	        -28.10146498	        -38.67683225	        -26.92705826	          1.20894928	        -15.78418014	          0.38488520	          0.59533974	          0.69247164	          0.67008485	          0.82679810	          0.65418254	          0.58667891	          0.74420604	          0.70331883	          0.45920945	          0.66492731	          0.41825750	          0.67158273	          0.69053929	          0.62396778	          0.86380199	          0.82260576	          0.19402703	
          0.06707423	         -6.31016227	          0.06418781	          1.04866664	         33.94670713	         14.62712419	        -27.06281924	        -36.06470051	        -26.73100910	         -0.05988216	        -15.95450766	          0.63437390	          0.76321662	          0.58541549	          0.80669984	          0.70917917	          0.55189067	          0.49620806	          0.62801516	          0.82935614	          0.56098611	          0.71406287	          0.36708818	          0.78865490	          0.61970645	          0.52797343	          0.91095969	          0.89217049	          0.17056828	
          0.07825327	         -6.75047083	          0.07781569	          1.05341548	         32.92251048	         13.72046105	        -25.98747363	        -33.64980713	        -26.54134047	         -0.80406818	        -15.96496223	          0.75402021	          0.85521752	          0.49576697	          0.88136728	          0.61306111	          0.46586813	          0.42038204	          0.53024023	          0.90137152	          0.66342028	          0.76368498	          0.32571844	          0.85199185	          0.56180230	          0.44712877	          0.92624537	          0.92429321	          0.15658365	
          0.08943231	         -7.27434935	          0.09100260	          1.05733118	         32.26755935	         13.30286214	        -25.34829823	        -31.50619441	        -26.40471237	         -1.07933524	        -15.88113406	          0.71459366	          0.90356833	          0.42105625	          0.91056420	          0.53670602	          0.39352129	          0.36114449	          0.44842671	          0.94232711	          0.77470586	          0.79250509	          0.30629082	          0.84429862	          0.50701277	          0.37976047	          0.92184818	          0.92703455	          0.15220002	
          0.10061135	         -7.86464622	          0.10388937	          1.06022860	         32.07046767	         13.50125732	        -25.36339751	        -29.86791456	        -26.22998827	         -1.55423512	        -15.66691955	          0.61575783	          0.91304198	          0.35793303	          0.92529508	          0.49002118	          0.33265966	          0.63176912	          0.38002386	          0.81412500	          0.84063416	          0.79565241	          0.31300358	          0.79498830	          0.46153271	          0.32428369	          0.91854570	          0.92001444	          0.14451420	
          0.11179039	         -8.45061030	          0.11681950	          1.06208597	         32.23147190	         14.28733338	        -26.04629433	        -29.12544260	        -25.91510271	         -1.88672488	        -15.32734342	          0.52397348	          0.91550401	          0.30486815	          0.93393536	          0.47259717	          0.28118893	          0.53307787	          0.32161978	          0.89212224	          0.87633283	          0.79070177	          0.33509721	          0.73403337	          0.42398092	          0.27900540	          0.91244278	          0.90231583	          0.13805018	
          0.12296943	         -8.97436416	          0.13009155	          1.06291721	         32.64603634	         15.48235757	        -27.35763316	        -28.73729554	        -25.42373454	         -2.00685963	        -14.87158455	          0.44429657	          0.89012953	          0.26123011	          0.93492962	          0.51069404	          0.23909837	          0.51463317	          0.29268854	          0.87157400	          0.89753128	          0.78004261	          0.38848887	          0.66274487	          0.39214974	          0.24291803	          0.88936084	          0.83599540	          0.13546175	
          0.13414847	         -9.41604291	          0.14392320	          1.06266845	         33.24588879	         17.01920548	        -29.24484944	        -28.58197145	        -24.71577066	         -1.82014236	        -14.27941629	          0.37633209	          0.84656784	          0.22671041	          0.91623351	          0.57979076	          0.20564952	          0.44450933	          0.25793709	          0.92343982	          0.91108650	          0.76739505	          0.50379096	          0.59068653	          0.36445249	          0.21501886	          0.80610793	          0.72883916	          0.14640166	
          0.14532751	         -9.75544371	          0.15861562	          1.06129878	         33.90699847	         18.73846308	        -31.58981732	        -28.08891509	        -23.68019871	         -1.05686131	        -13.52197909	          0.31850542	          0.77204102	          0.20268384	          0.86600798	          0.65697883	          0.18392316	          0.37794014	          0.22106246	          0.95346277	          0.91455020	          0.74411729	          0.63132898	          0.52495766	          0.34390842	          0.19701113	          0.70335880	          0.62521492	          0.17369687	
          0.15650655	         -9.97495755	          0.17450277	          1.05879985	         34.48231587	         20.43631544	        -34.22831186	        -26.60941094	        -22.23157549	         -0.47137604	        -12.56657745	          0.26958564	          0.67749302	          0.19152772	          0.80204884	          0.73686484	          0.41941979	          0.32389128	          0.23521184	          0.96864407	          0.91072748	          0.71279343	          0.73009196	          0.46631122	          0.32893629	          0.19907713	          0.60762362	          0.53321986	          0.26695203	
          0.16768559	        -10.06762636	          0.19198167	          1.05521103	         34.83052077	         21.98724568	        -36.99268573	        -25.32230568	        -20.27467256	         -1.15936239	        -11.36890447	          0.22826055	          0.58857877	          0.18170910	          0.77894310	          0.79827276	          0.60394777	          0.47335169	          0.54843024	          0.92474623	          0.90118032	          0.68822973	          0.80822585	          0.41453171	          0.31247254	          0.20634005	          0.52211559	          0.45323420	          0.39153371	
          0.17886463	        -10.03220420	          0.21131094	          1.05086999	         34.81167469	         23.23840598	        -39.62923415	        -25.84416607	        -18.00719141	         -2.00339848	         -9.92062293	          0.19340022	          0.52510730	          0.16071405	          0.84730293	          0.85027100	          0.51401646	          0.44569886	          0.66037396	          0.82693943	          0.82901285	          0.64974195	          0.85707215	          0.37163757	          0.31100994	          0.36901820	          0.44802674	          0.38499952	          0.36259961	
          0.19004367	         -9.87662973	          0.23227407	          1.04661387	         34.24240178	         23.94925865	        -41.62792615	        -27.70023158	        -15.87063076	         -2.17756158	         -8.30009336	          0.16384360	          0.46211081	          0.14015309	          0.90328146	          0.89369579	          0.43707785	          0.53967750	          0.59836950	          0.69746044	          0.71929163	          0.60455338	          0.84151811	          0.34938868	          0.39642387	          0.62340748	          0.38499402	          0.32716279	          0.31815918	
          0.20122270	         -9.59954847	          0.25395190	          1.04335013	         33.06901217	         24.27087310	        -42.79907747	        -30.14517626	        -13.96091372	         -2.35787378	         -6.70892656	          0.13885929	          0.40575546	          0.12130678	          0.93805417	          0.92262986	          0.36923722	          0.46046442	          0.50751106	          0.69579766	          0.61871973	          0.55967117	          0.74876802	          0.33982560	          0.55358793	          0.77556448	          0.33051262	          0.27811745	          0.27590441	
